<?xml version="1.0" encoding="UTF-8" standalone="no"?>
<!-- Created with Inkscape (http://www.inkscape.org/) -->

<svg
   xmlns:dc="http://purl.org/dc/elements/1.1/"
   xmlns:cc="http://creativecommons.org/ns#"
   xmlns:rdf="http://www.w3.org/1999/02/22-rdf-syntax-ns#"
   xmlns:svg="http://www.w3.org/2000/svg"
   xmlns="http://www.w3.org/2000/svg"
   xmlns:sodipodi="http://sodipodi.sourceforge.net/DTD/sodipodi-0.dtd"
   xmlns:inkscape="http://www.inkscape.org/namespaces/inkscape"
   width="100mm"
   height="100mm"
   viewBox="0 0 100 100"
   version="1.1"
   id="svg8"
   inkscape:version="0.92.2 (5c3e80d, 2017-08-06)"
   sodipodi:docname="genre_deselected.svg">
  <defs
     id="defs2" />
  <sodipodi:namedview
     id="base"
     pagecolor="#ffffff"
     bordercolor="#666666"
     borderopacity="1.0"
     inkscape:pageopacity="0.0"
     inkscape:pageshadow="2"
     inkscape:zoom="0.7"
     inkscape:cx="97.142861"
     inkscape:cy="187.71415"
     inkscape:document-units="mm"
     inkscape:current-layer="layer1"
     showgrid="false"
     inkscape:window-width="1920"
     inkscape:window-height="1001"
     inkscape:window-x="-9"
     inkscape:window-y="-9"
     inkscape:window-maximized="1" />
  <metadata
     id="metadata5">
    <rdf:RDF>
      <cc:Work
         rdf:about="">
        <dc:format>image/svg+xml</dc:format>
        <dc:type
           rdf:resource="http://purl.org/dc/dcmitype/StillImage" />
        <dc:title />
      </cc:Work>
    </rdf:RDF>
  </metadata>
  <g
     inkscape:label="Layer 1"
     inkscape:groupmode="layer"
     id="layer1"
     transform="translate(0,-197)">
    <path
       style="fill:#cccccc;fill-opacity:1;stroke-width:0.96090293;opacity:0.5"
       d="m 4.3733648,215.89809 c -0.413277,0.23598 -0.6963144,0.44359 -0.8087539,0.61049 -1.1534746,1.55794 0.2950216,16.45952 2.396654,24.64893 3.3959203,13.23226 11.4758831,25.52465 20.3395721,30.94237 2.690267,1.64447 5.889683,2.83214 7.107483,2.63915 1.227143,-0.18116 4.831904,-2.24526 8.030616,-4.55802 11.188087,-8.09389 18.697921,-25.03402 20.145007,-45.44091 0.522012,-7.35897 0.363402,-8.29286 -1.596539,-9.40086 -10.764057,-6.08495 -34.592075,-7.0599 -49.52186,-2.02567 -2.4948182,0.83924 -4.8650374,1.85895 -6.0921792,2.58452 z m 7.6790212,14.25461 c 4.79137,-3.05208 15.290721,-1.91147 16.033737,1.74089 0.431077,2.11943 -4.28733,4.90891 -8.198745,4.84688 -6.903048,-0.10928 -11.6889535,-4.13313 -7.834992,-6.58777 z m 24.995415,-0.0563 c 2.664006,-1.76484 8.793548,-2.49905 13.276328,-0.85263 2.068848,0.76046 3.768661,1.91288 3.776942,2.56108 v 0 c 0.0229,1.39157 -4.319051,4.20485 -7.34223,4.7637 -2.907214,0.537 -9.501669,-1.64888 -10.713302,-3.55154 -0.701425,-1.10113 -0.206374,-2.11678 1.00332,-2.91885 z m -19.165302,18.68188 2.871967,1.59883 c 7.559356,4.20732 11.878585,4.36329 19.173761,0.69103 l 5.334005,-2.68481 -1.693819,3.60036 c -0.932296,1.98039 -2.787548,4.29967 -4.144401,5.12041 -7.115766,4.41545 -17.947148,1.49538 -20.519687,-5.53175 z"
       id="path1126-5-7-3-4"
       inkscape:connector-curvature="0"
       sodipodi:nodetypes="ccccccccccsccscccccsccccccccc"
       inkscape:export-xdpi="19.690001"
       inkscape:export-ydpi="19.690001" />
    <path
       style="fill:#000000;fill-opacity:0.11219512;stroke:none;stroke-width:0.46629506px;stroke-linecap:butt;stroke-linejoin:miter;stroke-opacity:1;opacity:0.5"
       d="m 50.320249,265.00439 c 0,0 -2.695729,-13.44428 1.088621,-24.13186 2.684097,-7.58033 3.196947,-9.30058 5.538617,-12.0312 2.623469,-3.05896 4.713469,-0.42457 4.713469,-0.42457 l -1.031342,3.38799 -8.144638,30.11882 z"
       id="path1018-3-1"
       inkscape:connector-curvature="0"
       sodipodi:nodetypes="csscccc"
       inkscape:export-xdpi="19.690001"
       inkscape:export-ydpi="19.690001" />
    <path
       style="fill:#ffffff;fill-opacity:1;stroke-width:0.7382313;opacity:0.5"
       d="m 60.629614,231.80475 c -0.365161,-0.0176 -0.634277,0 -0.775971,0.0617 -1.390515,0.53347 -6.602212,10.78751 -8.620481,16.96145 -3.260749,9.97593 -3.098434,21.2761 0.409046,28.44509 1.064474,2.176 2.647615,4.26601 3.51629,4.64368 0.869734,0.38931 4.05769,0.53929 7.084926,0.36077 10.590467,-0.62724 22.448431,-8.50453 31.80876,-21.13089 3.375477,-4.55292 3.658158,-5.2235 2.845351,-6.75042 -4.463392,-8.38556 -19.501385,-18.85177 -31.253435,-21.75176 -1.963106,-0.4859 -3.919695,-0.8033 -5.014486,-0.83978 z m -0.907444,12.40624 c 4.364522,0 10.697263,5.07213 9.671385,7.74547 -0.595505,1.55142 -4.804233,1.41131 -7.31333,-0.24303 -4.427967,-2.91973 -5.868358,-7.50244 -2.358055,-7.50244 z m 16.220902,10.27835 c 2.454632,-0.0441 6.729625,2.00999 8.954806,4.92708 1.026759,1.34663 1.652578,2.79495 1.39051,3.21845 v 0 c -0.561489,0.90991 -4.534241,0.94216 -6.72399,0.0564 -2.105331,-0.85177 -5.476225,-4.98999 -5.476225,-6.72294 0,-1.00314 0.739666,-1.45713 1.854899,-1.47722 z m -20.129499,4.19569 1.201237,2.22148 c 3.161877,5.84597 5.896376,7.72978 12.13906,8.36123 l 4.564553,0.46175 -2.583641,1.63389 c -1.421357,0.89846 -3.580793,1.63584 -4.79877,1.60747 -6.433377,-0.0758 -12.246747,-6.43831 -11.013438,-12.05359 z"
       id="path1126-5-0-3"
       inkscape:connector-curvature="0"
       sodipodi:nodetypes="ccccccccccsccscccccsccccccccc"
       inkscape:export-xdpi="19.690001"
       inkscape:export-ydpi="19.690001" />
  </g>
</svg>
